<svg width="48" height="48" viewBox="0 0 48 48" fill="none" xmlns="http://www.w3.org/2000/svg">
<rect width="48" height="48" rx="24" fill="white"/>
<g style="mix-blend-mode:darken">
<path d="M23.496 32.428C23.76 32.452 24.06 32.476 24.396 32.5C24.756 32.5 25.176 32.5 25.656 32.5C28.464 32.5 30.54 31.792 31.884 30.376C33.252 28.96 33.936 27.004 33.936 24.508C33.936 21.892 33.288 19.912 31.992 18.568C30.696 17.224 28.644 16.552 25.836 16.552C25.452 16.552 25.056 16.564 24.648 16.588C24.24 16.588 23.856 16.612 23.496 16.66V32.428ZM39.732 24.508C39.732 26.668 39.396 28.552 38.724 30.16C38.052 31.768 37.092 33.1 35.844 34.156C34.62 35.212 33.12 36.004 31.344 36.532C29.568 37.06 27.576 37.324 25.368 37.324C24.36 37.324 23.184 37.276 21.84 37.18C20.496 37.108 19.176 36.94 17.88 36.676V12.376C19.176 12.136 20.52 11.98 21.912 11.908C23.328 11.812 24.54 11.764 25.548 11.764C27.684 11.764 29.616 12.004 31.344 12.484C33.096 12.964 34.596 13.72 35.844 14.752C37.092 15.784 38.052 17.104 38.724 18.712C39.396 20.32 39.732 22.252 39.732 24.508Z" fill="black"/>
</g>
<path d="M20.316 31.363C20.5433 31.3837 20.8017 31.4043 21.091 31.425C21.401 31.425 21.7627 31.425 22.176 31.425C24.594 31.425 26.3817 30.8153 27.539 29.596C28.717 28.3767 29.306 26.6923 29.306 24.543C29.306 22.2903 28.748 20.5853 27.632 19.428C26.516 18.2707 24.749 17.692 22.331 17.692C22.0003 17.692 21.6593 17.7023 21.308 17.723C20.9567 17.723 20.626 17.7437 20.316 17.785V31.363ZM34.297 24.543C34.297 26.403 34.0077 28.0253 33.429 29.41C32.8503 30.7947 32.0237 31.9417 30.949 32.851C29.895 33.7603 28.6033 34.4423 27.074 34.897C25.5447 35.3517 23.8293 35.579 21.928 35.579C21.06 35.579 20.0473 35.5377 18.89 35.455C17.7327 35.393 16.596 35.2483 15.48 35.021V14.096C16.596 13.8893 17.7533 13.755 18.952 13.693C20.1713 13.6103 21.215 13.569 22.083 13.569C23.9223 13.569 25.586 13.7757 27.074 14.189C28.5827 14.6023 29.8743 15.2533 30.949 16.142C32.0237 17.0307 32.8503 18.1673 33.429 19.552C34.0077 20.9367 34.297 22.6003 34.297 24.543Z" fill="white"/>
<path d="M22 18.65C35 18.65 35.5 30.44 22 30.44" stroke="black" stroke-width="2"/>
<g clip-path="url(#clip0_1005_22)">
<path fill-rule="evenodd" clip-rule="evenodd" d="M17.2184 32.7482C17.1165 32.6599 16.9715 32.6416 16.8509 32.7019L10.8509 35.7019C10.738 35.7583 10.6666 35.8738 10.6666 36C10.6666 36.1263 10.738 36.2417 10.8509 36.2982L16.8509 39.2982C16.9715 39.3585 17.1165 39.3402 17.2184 39.2518C17.3202 39.1635 17.3588 39.0225 17.3162 38.8946L16.6846 36.9999C16.6786 37 16.6726 37 16.6666 37H14.6666C14.1144 37 13.6666 36.5523 13.6666 36C13.6666 35.4477 14.1144 35 14.6666 35H16.6666C16.6726 35 16.6786 35.0001 16.6846 35.0002L17.3162 33.1054C17.3588 32.9775 17.3202 32.8365 17.2184 32.7482Z" fill="black"/>
</g>
<g clip-path="url(#clip1_1005_22)">
<path fill-rule="evenodd" clip-rule="evenodd" d="M17.2184 9.74821C17.1165 9.65987 16.9715 9.64159 16.8509 9.70188L10.8509 12.7019C10.738 12.7583 10.6666 12.8738 10.6666 13C10.6666 13.1263 10.738 13.2417 10.8509 13.2982L16.8509 16.2982C16.9715 16.3585 17.1165 16.3402 17.2184 16.2518C17.3202 16.1635 17.3588 16.0225 17.3162 15.8946L16.6846 13.9999C16.6786 14 16.6726 14 16.6666 14H14.6666C14.1144 14 13.6666 13.5523 13.6666 13C13.6666 12.4477 14.1144 12 14.6666 12H16.6666C16.6726 12 16.6786 12.0001 16.6846 12.0002L17.3162 10.1054C17.3588 9.97753 17.3202 9.83654 17.2184 9.74821Z" fill="black"/>
</g>
<defs>
<clipPath id="clip0_1005_22">
<rect width="8" height="8" fill="white" transform="matrix(-1 0 0 1 18 32)"/>
</clipPath>
<clipPath id="clip1_1005_22">
<rect width="8" height="8" fill="white" transform="matrix(-1 0 0 1 18 9)"/>
</clipPath>
</defs>
</svg>
