<svg width="90" height="90" viewBox="0 0 90 90" fill="none" xmlns="http://www.w3.org/2000/svg">
<path d="M32.25 16L6 30.6667V74.6667L32.25 60L58.5 74.6667L84.75 60V16L58.5 30.6667L32.25 16Z" stroke="#5294E2" stroke-width="3" stroke-linecap="round" stroke-linejoin="round"/>
<path d="M48 41H50C51.3333 41 54 41.8 54 45C54 48.2 51.3333 49 50 49H48M42 41H40C38.6667 41 36 41.8 36 45C36 48.2 38.6667 49 40 49H42M41 45H49" stroke="#5294E2" stroke-width="3" stroke-linecap="round" stroke-linejoin="round"/>
<path d="M59 45L56 54L74 45L56 36L59 45ZM59 45H65" stroke="#5294E2" stroke-width="3" stroke-linecap="round" stroke-linejoin="round"/>
<path d="M31 45L34 36L16 45L34 54L31 45ZM31 45H25" stroke="#5294E2" stroke-width="3" stroke-linecap="round" stroke-linejoin="round"/>
</svg>
