<svg width="24" height="24" viewBox="0 0 24 24" fill="none" xmlns="http://www.w3.org/2000/svg">
<path d="M15 15C18.3137 15 21 12.3137 21 9C21 5.68629 18.3137 3 15 3C11.6863 3 9 5.68629 9 9C9 9.60617 9.08989 10.1914 9.25707 10.7429L9 11L3.29289 16.7071C3.10536 16.8946 3 17.149 3 17.4142V20C3 20.5523 3.44772 21 4 21H6C6.55228 21 7 20.5523 7 20C7 19.4477 7.44772 19 8 19C8.55228 19 9 18.5523 9 18C9 17.4477 9.44772 17 10 17H10.5858C10.851 17 11.1054 16.8946 11.2929 16.7071L13 15L13.2571 14.7429C13.8087 14.9101 14.3938 15 15 15Z" stroke="white" stroke-width="2" stroke-linecap="round" stroke-linejoin="round"/>
<path d="M17 9C17 7.89543 16.1046 7 15 7" stroke="white" stroke-width="2" stroke-linecap="round" stroke-linejoin="round"/>
</svg>
